<mxfile host="app.diagrams.net" modified="2024-02-02T03:30:53.995Z" agent="Mozilla/5.0 (X11; CrOS x86_64 14541.0.0) AppleWebKit/537.36 (KHTML, like Gecko) Chrome/120.0.0.0 Safari/537.36" etag="t5TTS_djn2fYROD2yVB3" version="23.1.1" type="github">
  <diagram name="Page-1" id="p-GbRIj7qv8hGRLoSoub">
    <mxGraphModel dx="745" dy="308" grid="1" gridSize="10" guides="1" tooltips="1" connect="1" arrows="1" fold="1" page="1" pageScale="1" pageWidth="827" pageHeight="1169" math="0" shadow="0">
      <root>
        <mxCell id="0" />
        <mxCell id="1" parent="0" />
        <mxCell id="gZCcsd0ebzGauQBMV-lC-2" value="" style="rounded=0;whiteSpace=wrap;html=1;" vertex="1" parent="1">
          <mxGeometry x="220" y="50" width="250" height="320" as="geometry" />
        </mxCell>
        <mxCell id="gZCcsd0ebzGauQBMV-lC-3" value="PERPUS DIGITAL" style="text;html=1;strokeColor=none;fillColor=none;align=center;verticalAlign=middle;whiteSpace=wrap;rounded=0;" vertex="1" parent="1">
          <mxGeometry x="279" y="50" width="135" height="30" as="geometry" />
        </mxCell>
        <mxCell id="gZCcsd0ebzGauQBMV-lC-4" value="" style="ellipse;whiteSpace=wrap;html=1;" vertex="1" parent="1">
          <mxGeometry x="286.5" y="90" width="120" height="50" as="geometry" />
        </mxCell>
        <mxCell id="gZCcsd0ebzGauQBMV-lC-5" value="" style="ellipse;whiteSpace=wrap;html=1;" vertex="1" parent="1">
          <mxGeometry x="286.5" y="160" width="120" height="50" as="geometry" />
        </mxCell>
        <mxCell id="gZCcsd0ebzGauQBMV-lC-6" value="" style="ellipse;whiteSpace=wrap;html=1;" vertex="1" parent="1">
          <mxGeometry x="286.5" y="230" width="120" height="50" as="geometry" />
        </mxCell>
        <mxCell id="gZCcsd0ebzGauQBMV-lC-7" value="" style="ellipse;whiteSpace=wrap;html=1;" vertex="1" parent="1">
          <mxGeometry x="286.5" y="300" width="120" height="50" as="geometry" />
        </mxCell>
        <mxCell id="gZCcsd0ebzGauQBMV-lC-8" value="From pengunjung" style="text;html=1;strokeColor=none;fillColor=none;align=center;verticalAlign=middle;whiteSpace=wrap;rounded=0;" vertex="1" parent="1">
          <mxGeometry x="291.5" y="100" width="110" height="30" as="geometry" />
        </mxCell>
        <mxCell id="gZCcsd0ebzGauQBMV-lC-9" value="Pencarian Buku" style="text;html=1;strokeColor=none;fillColor=none;align=center;verticalAlign=middle;whiteSpace=wrap;rounded=0;" vertex="1" parent="1">
          <mxGeometry x="291.5" y="170" width="110" height="30" as="geometry" />
        </mxCell>
        <mxCell id="gZCcsd0ebzGauQBMV-lC-10" value="Detail Buku" style="text;html=1;strokeColor=none;fillColor=none;align=center;verticalAlign=middle;whiteSpace=wrap;rounded=0;" vertex="1" parent="1">
          <mxGeometry x="291.5" y="240" width="110" height="30" as="geometry" />
        </mxCell>
        <mxCell id="gZCcsd0ebzGauQBMV-lC-11" value="Laporan statistik" style="text;html=1;strokeColor=none;fillColor=none;align=center;verticalAlign=middle;whiteSpace=wrap;rounded=0;" vertex="1" parent="1">
          <mxGeometry x="291.5" y="310" width="110" height="30" as="geometry" />
        </mxCell>
        <mxCell id="gZCcsd0ebzGauQBMV-lC-12" value="Pengunjung" style="shape=umlActor;verticalLabelPosition=bottom;verticalAlign=top;html=1;outlineConnect=0;" vertex="1" parent="1">
          <mxGeometry x="70" y="115" width="70" height="140" as="geometry" />
        </mxCell>
        <mxCell id="gZCcsd0ebzGauQBMV-lC-20" value="" style="endArrow=none;html=1;rounded=0;entryX=0;entryY=0.5;entryDx=0;entryDy=0;" edge="1" parent="1" target="gZCcsd0ebzGauQBMV-lC-4">
          <mxGeometry width="50" height="50" relative="1" as="geometry">
            <mxPoint x="160" y="160" as="sourcePoint" />
            <mxPoint x="180" y="120" as="targetPoint" />
            <Array as="points">
              <mxPoint x="190" y="110" />
            </Array>
          </mxGeometry>
        </mxCell>
        <mxCell id="gZCcsd0ebzGauQBMV-lC-24" value="" style="endArrow=none;html=1;rounded=0;entryX=0;entryY=0.5;entryDx=0;entryDy=0;" edge="1" parent="1" target="gZCcsd0ebzGauQBMV-lC-5">
          <mxGeometry width="50" height="50" relative="1" as="geometry">
            <mxPoint x="159.5" y="200" as="sourcePoint" />
            <mxPoint x="286.5" y="155" as="targetPoint" />
            <Array as="points" />
          </mxGeometry>
        </mxCell>
        <mxCell id="gZCcsd0ebzGauQBMV-lC-26" value="" style="endArrow=none;html=1;rounded=0;entryX=0;entryY=0.5;entryDx=0;entryDy=0;" edge="1" parent="1" target="gZCcsd0ebzGauQBMV-lC-6">
          <mxGeometry width="50" height="50" relative="1" as="geometry">
            <mxPoint x="160" y="235" as="sourcePoint" />
            <mxPoint x="210" y="185" as="targetPoint" />
          </mxGeometry>
        </mxCell>
        <mxCell id="gZCcsd0ebzGauQBMV-lC-30" value="Perpustakaan" style="shape=umlActor;verticalLabelPosition=bottom;verticalAlign=top;html=1;outlineConnect=0;" vertex="1" parent="1">
          <mxGeometry x="550" y="115" width="70" height="140" as="geometry" />
        </mxCell>
        <mxCell id="gZCcsd0ebzGauQBMV-lC-31" value="" style="endArrow=none;html=1;rounded=0;exitX=1;exitY=0.5;exitDx=0;exitDy=0;" edge="1" parent="1" source="gZCcsd0ebzGauQBMV-lC-4">
          <mxGeometry width="50" height="50" relative="1" as="geometry">
            <mxPoint x="490" y="190" as="sourcePoint" />
            <mxPoint x="540" y="150" as="targetPoint" />
            <Array as="points">
              <mxPoint x="530" y="110" />
            </Array>
          </mxGeometry>
        </mxCell>
        <mxCell id="gZCcsd0ebzGauQBMV-lC-32" value="" style="endArrow=none;html=1;rounded=0;exitX=1;exitY=0.5;exitDx=0;exitDy=0;" edge="1" parent="1" source="gZCcsd0ebzGauQBMV-lC-5">
          <mxGeometry width="50" height="50" relative="1" as="geometry">
            <mxPoint x="490" y="230" as="sourcePoint" />
            <mxPoint x="540" y="180" as="targetPoint" />
          </mxGeometry>
        </mxCell>
        <mxCell id="gZCcsd0ebzGauQBMV-lC-33" value="" style="endArrow=none;html=1;rounded=0;exitX=1;exitY=0.5;exitDx=0;exitDy=0;" edge="1" parent="1" source="gZCcsd0ebzGauQBMV-lC-6">
          <mxGeometry width="50" height="50" relative="1" as="geometry">
            <mxPoint x="406.5" y="215" as="sourcePoint" />
            <mxPoint x="539.5" y="210" as="targetPoint" />
          </mxGeometry>
        </mxCell>
        <mxCell id="gZCcsd0ebzGauQBMV-lC-34" value="" style="endArrow=none;html=1;rounded=0;exitX=1;exitY=0.5;exitDx=0;exitDy=0;" edge="1" parent="1" source="gZCcsd0ebzGauQBMV-lC-7">
          <mxGeometry width="50" height="50" relative="1" as="geometry">
            <mxPoint x="410" y="320" as="sourcePoint" />
            <mxPoint x="539" y="255" as="targetPoint" />
          </mxGeometry>
        </mxCell>
      </root>
    </mxGraphModel>
  </diagram>
</mxfile>
